<?xml version="1.0" encoding="UTF-8"?>
<svg xmlns="http://www.w3.org/2000/svg" xmlns:xlink="http://www.w3.org/1999/xlink" width="100px" height="100px" viewBox="0 0 100 100" version="1.1">
<g id="surface1">
<path style=" stroke:none;fill-rule:evenodd;fill:rgb(20.784314%,38.823529%,0%);fill-opacity:1;" d="M 100.015625 50.007812 C 100.015625 77.628906 77.628906 100.015625 50.007812 100.015625 C 22.390625 100.015625 0 77.628906 0 50.007812 C 0 22.390625 22.390625 0 50.007812 0 C 77.628906 0 100.015625 22.390625 100.015625 50.007812 Z M 100.015625 50.007812 "/>
<path style=" stroke:none;fill-rule:evenodd;fill:rgb(42.745098%,61.568627%,8.235294%);fill-opacity:1;" d="M 96.222656 48.917969 C 96.222656 75.042969 75.042969 96.222656 48.917969 96.222656 C 22.789062 96.222656 1.609375 75.042969 1.609375 48.917969 C 1.609375 22.789062 22.789062 1.609375 48.917969 1.609375 C 75.042969 1.609375 96.222656 22.789062 96.222656 48.917969 Z M 96.222656 48.917969 "/>
<path style=" stroke:none;fill-rule:evenodd;fill:rgb(100%,100%,100%);fill-opacity:1;" d="M 46.699219 49.757812 C 44.953125 53.195312 40.886719 54.632812 37.617188 52.972656 C 34.351562 51.3125 33.117188 47.175781 34.863281 43.738281 C 36.613281 40.300781 40.679688 38.863281 43.945312 40.523438 C 47.214844 42.1875 48.445312 46.320312 46.699219 49.757812 Z M 46.699219 49.757812 "/>
<path style=" stroke:none;fill-rule:evenodd;fill:rgb(21.568627%,42.352941%,1.568627%);fill-opacity:1;" d="M 47.949219 50.390625 C 45.832031 54.554688 40.90625 56.296875 36.949219 54.285156 C 32.992188 52.273438 31.5 47.269531 33.617188 43.105469 C 35.734375 38.941406 40.65625 37.199219 44.613281 39.210938 C 48.570312 41.222656 50.0625 46.230469 47.949219 50.390625 Z M 47.949219 50.390625 "/>
<path style=" stroke:none;fill-rule:evenodd;fill:rgb(100%,100%,100%);fill-opacity:1;" d="M 62.558594 50.640625 C 60.613281 54.46875 56.089844 56.070312 52.453125 54.21875 C 48.816406 52.371094 47.445312 47.773438 49.390625 43.949219 C 51.335938 40.125 55.859375 38.523438 59.496094 40.371094 C 63.132812 42.21875 64.503906 46.816406 62.558594 50.640625 Z M 62.558594 50.640625 "/>
<path style=" stroke:none;fill-rule:evenodd;fill:rgb(21.568627%,42.352941%,1.568627%);fill-opacity:1;" d="M 63.777344 51.742188 C 61.511719 56.195312 56.242188 58.0625 52.007812 55.910156 C 47.773438 53.753906 46.175781 48.398438 48.441406 43.945312 C 50.707031 39.488281 55.976562 37.625 60.210938 39.777344 C 64.445312 41.929688 66.042969 47.285156 63.777344 51.742188 Z M 63.777344 51.742188 "/>
<path style=" stroke:none;fill-rule:evenodd;fill:rgb(17.647059%,26.666667%,0%);fill-opacity:1;" d="M 33.601562 38.925781 C 34.191406 38.539062 36.25 35.964844 38.078125 34.628906 C 39.902344 33.289062 41.5 33.1875 42.828125 33.128906 C 44.15625 33.070312 45.21875 33.0625 45.71875 32.683594 C 46.222656 32.308594 46.164062 31.566406 45.289062 31.246094 C 44.414062 30.925781 42.722656 31.03125 41.367188 31.316406 C 40.007812 31.601562 38.984375 32.070312 37.941406 32.835938 C 36.894531 33.601562 35.828125 34.664062 34.855469 36.09375 C 33.882812 37.519531 33.007812 39.316406 33.601562 38.925781 Z M 33.601562 38.925781 "/>
<path style=" stroke:none;fill-rule:evenodd;fill:rgb(17.647059%,26.666667%,0%);fill-opacity:1;" d="M 67.125 40.730469 C 66.902344 40.453125 66.433594 38.5625 65.765625 37.128906 C 65.097656 35.695312 64.230469 34.710938 63.371094 34.074219 C 62.511719 33.4375 61.660156 33.136719 60.925781 32.972656 C 60.195312 32.808594 59.585938 32.78125 59.167969 32.765625 C 58.746094 32.753906 58.519531 32.753906 58.320312 32.648438 C 58.121094 32.539062 57.953125 32.328125 57.9375 32.066406 C 57.921875 31.800781 58.066406 31.488281 58.761719 31.324219 C 59.457031 31.160156 60.707031 31.148438 61.980469 31.566406 C 63.25 31.984375 64.542969 32.839844 65.433594 34.039062 C 66.324219 35.238281 66.8125 36.789062 67.070312 38.230469 C 67.324219 39.675781 67.347656 41.007812 67.125 40.730469 Z M 67.125 40.730469 "/>
<path style=" stroke:none;fill-rule:evenodd;fill:rgb(100%,100%,100%);fill-opacity:1;" d="M 62.558594 50.640625 C 60.613281 54.46875 56.089844 56.070312 52.453125 54.21875 C 48.816406 52.371094 47.445312 47.773438 49.390625 43.949219 C 51.335938 40.125 55.859375 38.523438 59.496094 40.371094 C 63.132812 42.21875 64.503906 46.816406 62.558594 50.640625 Z M 62.558594 50.640625 "/>
<path style=" stroke:none;fill-rule:evenodd;fill:rgb(100%,100%,100%);fill-opacity:1;" d="M 46.699219 49.757812 C 44.953125 53.195312 40.886719 54.632812 37.617188 52.972656 C 34.351562 51.3125 33.117188 47.175781 34.863281 43.738281 C 36.613281 40.300781 40.679688 38.863281 43.945312 40.523438 C 47.214844 42.1875 48.445312 46.320312 46.699219 49.757812 Z M 46.699219 49.757812 "/>
<path style=" stroke:none;fill-rule:evenodd;fill:rgb(17.647059%,26.666667%,0%);fill-opacity:1;" d="M 45.140625 47.597656 C 45.140625 49.183594 43.855469 50.46875 42.269531 50.46875 C 40.683594 50.46875 39.394531 49.183594 39.394531 47.597656 C 39.394531 46.007812 40.683594 44.722656 42.269531 44.722656 C 43.855469 44.722656 45.140625 46.007812 45.140625 47.597656 Z M 45.140625 47.597656 "/>
<path style=" stroke:none;fill-rule:evenodd;fill:rgb(100%,100%,100%);fill-opacity:1;" d="M 44.753906 47.367188 C 44.753906 48.011719 44.230469 48.53125 43.589844 48.53125 C 42.949219 48.53125 42.425781 48.011719 42.425781 47.367188 C 42.425781 46.726562 42.949219 46.207031 43.589844 46.207031 C 44.230469 46.207031 44.753906 46.726562 44.753906 47.367188 Z M 44.753906 47.367188 "/>
<path style=" stroke:none;fill-rule:evenodd;fill:rgb(100%,100%,100%);fill-opacity:1;" d="M 43.957031 46.183594 C 43.957031 46.605469 43.613281 46.949219 43.191406 46.949219 C 42.769531 46.949219 42.429688 46.605469 42.429688 46.183594 C 42.429688 45.761719 42.769531 45.421875 43.191406 45.421875 C 43.613281 45.421875 43.957031 45.761719 43.957031 46.183594 Z M 43.957031 46.183594 "/>
<path style=" stroke:none;fill-rule:evenodd;fill:rgb(17.647059%,26.666667%,0%);fill-opacity:1;" d="M 59.023438 48.929688 C 59.023438 50.519531 57.738281 51.804688 56.152344 51.804688 C 54.566406 51.804688 53.28125 50.519531 53.28125 48.929688 C 53.28125 47.34375 54.566406 46.058594 56.152344 46.058594 C 57.738281 46.058594 59.023438 47.34375 59.023438 48.929688 Z M 59.023438 48.929688 "/>
<path style=" stroke:none;fill-rule:evenodd;fill:rgb(100%,100%,100%);fill-opacity:1;" d="M 58.636719 48.703125 C 58.636719 49.347656 58.117188 49.867188 57.472656 49.867188 C 56.832031 49.867188 56.3125 49.347656 56.3125 48.703125 C 56.3125 48.0625 56.832031 47.542969 57.472656 47.542969 C 58.117188 47.542969 58.636719 48.0625 58.636719 48.703125 Z M 58.636719 48.703125 "/>
<path style=" stroke:none;fill-rule:evenodd;fill:rgb(100%,100%,100%);fill-opacity:1;" d="M 57.839844 47.519531 C 57.839844 47.941406 57.496094 48.285156 57.074219 48.285156 C 56.652344 48.285156 56.3125 47.941406 56.3125 47.519531 C 56.3125 47.097656 56.652344 46.757812 57.074219 46.757812 C 57.496094 46.757812 57.839844 47.097656 57.839844 47.519531 Z M 57.839844 47.519531 "/>
<path style=" stroke:none;fill-rule:evenodd;fill:rgb(17.647059%,26.666667%,0%);fill-opacity:1;" d="M 42.984375 66.050781 C 43.042969 67.582031 43 70.332031 43.519531 72.082031 C 44.035156 73.828125 45.117188 74.574219 46.160156 74.714844 C 47.207031 74.851562 48.21875 74.382812 48.980469 73.695312 C 49.742188 73.003906 50.253906 72.09375 50.550781 71.109375 C 50.847656 70.125 50.933594 69.074219 51.023438 67.90625 C 51.113281 66.738281 51.210938 65.457031 51.378906 64.878906 C 51.546875 64.304688 51.785156 64.429688 51.921875 65.625 C 52.058594 66.820312 52.09375 69.082031 51.722656 70.980469 C 51.347656 72.878906 50.5625 74.410156 49.597656 75.3125 C 48.628906 76.214844 47.480469 76.488281 46.367188 76.433594 C 45.253906 76.378906 44.179688 75.996094 43.363281 75.183594 C 42.546875 74.371094 41.992188 73.132812 41.769531 71.515625 C 41.546875 69.894531 41.65625 67.898438 41.855469 66.566406 C 42.050781 65.230469 42.332031 64.566406 42.550781 64.390625 C 42.769531 64.210938 42.925781 64.519531 42.984375 66.050781 Z M 42.984375 66.050781 "/>
<path style=" stroke:none;fill-rule:evenodd;fill:rgb(33.72549%,51.764706%,0%);fill-opacity:1;" d="M 22.621094 66.972656 C 17.039062 60.6875 12.480469 52.777344 9.890625 46.148438 C 7.304688 39.519531 6.691406 34.171875 6.078125 28.820312 C 3.210938 34.921875 1.609375 41.734375 1.609375 48.917969 C 1.609375 75.046875 22.789062 96.226562 48.914062 96.226562 C 62.949219 96.226562 75.554688 90.113281 84.21875 80.410156 C 79.652344 81.710938 75.082031 83.015625 67.945312 83.375 C 60.808594 83.738281 51.105469 83.15625 42.949219 80.535156 C 34.800781 77.914062 28.199219 73.257812 22.617188 66.972656 Z M 22.621094 66.972656 "/>
<path style=" stroke:none;fill-rule:evenodd;fill:rgb(60%,74.509804%,30.196078%);fill-opacity:1;" d="M 65.898438 13.355469 C 70.660156 17.015625 76.917969 20.460938 81.152344 22.382812 C 85.386719 24.308594 87.597656 24.710938 89.804688 25.109375 C 82.511719 12.605469 69.644531 3.753906 54.609375 1.949219 C 57.871094 5.824219 61.136719 9.695312 65.898438 13.355469 Z M 65.898438 13.355469 "/>
</g>
</svg>
