<?xml version="1.0" encoding="UTF-8"?>
<svg xmlns="http://www.w3.org/2000/svg" xmlns:xlink="http://www.w3.org/1999/xlink" width="100px" height="100px" viewBox="0 0 100 100" version="1.1">
<g id="surface1">
<path style=" stroke:none;fill-rule:evenodd;fill:rgb(20.392157%,17.647059%,44.313725%);fill-opacity:1;" d="M 49.917969 0 L 99.839844 38.1875 L 90.304688 69.082031 L 80.773438 99.976562 L 19.066406 99.976562 L 9.535156 69.082031 L 0 38.1875 L 24.960938 19.09375 Z M 49.917969 0 "/>
<path style=" stroke:none;fill-rule:evenodd;fill:rgb(32.156863%,29.803922%,58.823529%);fill-opacity:1;" d="M 49.703125 2.183594 L 73.464844 20.363281 L 97.226562 38.539062 L 88.152344 67.949219 L 79.074219 97.359375 L 20.335938 97.359375 L 11.257812 67.949219 L 2.183594 38.539062 L 25.941406 20.363281 Z M 49.703125 2.183594 "/>
<path style=" stroke:none;fill-rule:evenodd;fill:rgb(100%,100%,100%);fill-opacity:1;" d="M 48.429688 47.195312 C 46.8125 50.542969 43.054688 51.945312 40.03125 50.328125 C 37.007812 48.707031 35.871094 44.683594 37.484375 41.335938 C 39.101562 37.992188 42.863281 36.589844 45.882812 38.207031 C 48.90625 39.824219 50.046875 43.847656 48.429688 47.195312 Z M 48.429688 47.195312 "/>
<path style=" stroke:none;fill-rule:evenodd;fill:rgb(20%,17.254902%,43.529412%);fill-opacity:1;" d="M 49.585938 47.8125 C 47.625 51.867188 43.074219 53.566406 39.414062 51.605469 C 35.753906 49.644531 34.375 44.773438 36.332031 40.71875 C 38.289062 36.667969 42.84375 34.96875 46.5 36.929688 C 50.160156 38.886719 51.542969 43.761719 49.585938 47.8125 Z M 49.585938 47.8125 "/>
<path style=" stroke:none;fill-rule:evenodd;fill:rgb(100%,100%,100%);fill-opacity:1;" d="M 63.09375 48.058594 C 61.292969 51.78125 57.113281 53.339844 53.75 51.539062 C 50.386719 49.742188 49.121094 45.261719 50.917969 41.539062 C 52.714844 37.816406 56.898438 36.257812 60.261719 38.058594 C 63.625 39.855469 64.890625 44.335938 63.09375 48.058594 Z M 63.09375 48.058594 "/>
<path style=" stroke:none;fill-rule:evenodd;fill:rgb(20%,17.254902%,43.529412%);fill-opacity:1;" d="M 64.21875 49.128906 C 62.125 53.464844 57.253906 55.28125 53.335938 53.183594 C 49.421875 51.089844 47.945312 45.871094 50.039062 41.535156 C 52.132812 37.199219 57.007812 35.382812 60.921875 37.480469 C 64.839844 39.574219 66.316406 44.789062 64.21875 49.128906 Z M 64.21875 49.128906 "/>
<path style=" stroke:none;fill-rule:evenodd;fill:rgb(100%,100%,100%);fill-opacity:1;" d="M 63.09375 48.058594 C 61.292969 51.78125 57.113281 53.339844 53.75 51.539062 C 50.386719 49.742188 49.121094 45.261719 50.917969 41.539062 C 52.714844 37.816406 56.898438 36.257812 60.261719 38.058594 C 63.625 39.855469 64.890625 44.335938 63.09375 48.058594 Z M 63.09375 48.058594 "/>
<path style=" stroke:none;fill-rule:evenodd;fill:rgb(100%,100%,100%);fill-opacity:1;" d="M 48.429688 47.195312 C 46.8125 50.542969 43.054688 51.945312 40.03125 50.328125 C 37.007812 48.707031 35.871094 44.683594 37.484375 41.335938 C 39.101562 37.992188 42.863281 36.589844 45.882812 38.207031 C 48.90625 39.824219 50.046875 43.847656 48.429688 47.195312 Z M 48.429688 47.195312 "/>
<path style=" stroke:none;fill-rule:evenodd;fill:rgb(14.509804%,10.588235%,34.509804%);fill-opacity:1;" d="M 46.988281 45.089844 C 46.988281 46.636719 45.800781 47.886719 44.332031 47.886719 C 42.867188 47.886719 41.675781 46.636719 41.675781 45.089844 C 41.675781 43.546875 42.867188 42.296875 44.332031 42.296875 C 45.800781 42.296875 46.988281 43.546875 46.988281 45.089844 Z M 46.988281 45.089844 "/>
<path style=" stroke:none;fill-rule:evenodd;fill:rgb(100%,100%,100%);fill-opacity:1;" d="M 46.628906 44.871094 C 46.628906 45.496094 46.148438 46 45.554688 46 C 44.960938 46 44.480469 45.496094 44.480469 44.871094 C 44.480469 44.246094 44.960938 43.738281 45.554688 43.738281 C 46.148438 43.738281 46.628906 44.246094 46.628906 44.871094 Z M 46.628906 44.871094 "/>
<path style=" stroke:none;fill-rule:evenodd;fill:rgb(100%,100%,100%);fill-opacity:1;" d="M 45.890625 43.71875 C 45.890625 44.128906 45.574219 44.460938 45.1875 44.460938 C 44.796875 44.460938 44.480469 44.128906 44.480469 43.71875 C 44.480469 43.308594 44.796875 42.976562 45.1875 42.976562 C 45.574219 42.976562 45.890625 43.308594 45.890625 43.71875 Z M 45.890625 43.71875 "/>
<path style=" stroke:none;fill-rule:evenodd;fill:rgb(14.509804%,10.588235%,34.509804%);fill-opacity:1;" d="M 59.824219 46.390625 C 59.824219 47.9375 58.636719 49.1875 57.167969 49.1875 C 55.703125 49.1875 54.511719 47.9375 54.511719 46.390625 C 54.511719 44.847656 55.703125 43.59375 57.167969 43.59375 C 58.636719 43.59375 59.824219 44.847656 59.824219 46.390625 Z M 59.824219 46.390625 "/>
<path style=" stroke:none;fill-rule:evenodd;fill:rgb(100%,100%,100%);fill-opacity:1;" d="M 59.464844 46.171875 C 59.464844 46.796875 58.984375 47.300781 58.390625 47.300781 C 57.796875 47.300781 57.316406 46.796875 57.316406 46.171875 C 57.316406 45.546875 57.796875 45.039062 58.390625 45.039062 C 58.984375 45.039062 59.464844 45.546875 59.464844 46.171875 Z M 59.464844 46.171875 "/>
<path style=" stroke:none;fill-rule:evenodd;fill:rgb(100%,100%,100%);fill-opacity:1;" d="M 58.726562 45.019531 C 58.726562 45.429688 58.414062 45.761719 58.023438 45.761719 C 57.632812 45.761719 57.316406 45.429688 57.316406 45.019531 C 57.316406 44.609375 57.632812 44.273438 58.023438 44.273438 C 58.414062 44.273438 58.726562 44.609375 58.726562 45.019531 Z M 58.726562 45.019531 "/>
<path style=" stroke:none;fill-rule:evenodd;fill:rgb(15.294118%,11.764706%,36.470588%);fill-opacity:1;" d="M 45.679688 35.941406 C 44.441406 35.867188 42.085938 35.492188 39.796875 34.773438 C 37.511719 34.058594 35.292969 33.007812 33.882812 32.175781 C 32.476562 31.347656 31.875 30.738281 31.675781 30.304688 C 31.476562 29.875 31.675781 29.621094 32.117188 29.675781 C 32.554688 29.726562 33.234375 30.085938 34.484375 30.746094 C 35.730469 31.410156 37.550781 32.378906 39.296875 33.144531 C 41.046875 33.914062 42.722656 34.480469 44.023438 34.847656 C 45.320312 35.21875 46.242188 35.386719 46.640625 35.585938 C 47.039062 35.785156 46.917969 36.015625 45.679688 35.941406 Z M 45.679688 35.941406 "/>
<path style=" stroke:none;fill-rule:evenodd;fill:rgb(15.294118%,11.764706%,36.470588%);fill-opacity:1;" d="M 55.203125 30.070312 C 55.761719 29.808594 56.484375 29.488281 57.492188 29.511719 C 58.496094 29.53125 59.78125 29.890625 60.8125 30.460938 C 61.84375 31.03125 62.621094 31.808594 63.191406 32.652344 C 63.761719 33.492188 64.121094 34.394531 64.589844 34.816406 C 65.058594 35.238281 65.640625 35.175781 65.898438 34.902344 C 66.160156 34.628906 66.097656 34.144531 65.539062 33.164062 C 64.980469 32.1875 63.921875 30.714844 62.671875 29.78125 C 61.421875 28.84375 59.984375 28.445312 58.605469 28.496094 C 57.230469 28.546875 55.910156 29.054688 55.132812 29.503906 C 54.351562 29.957031 54.113281 30.359375 54.1875 30.453125 C 54.261719 30.546875 54.648438 30.335938 55.203125 30.070312 Z M 55.203125 30.070312 "/>
<path style=" stroke:none;fill-rule:evenodd;fill:rgb(15.294118%,11.764706%,36.470588%);fill-opacity:1;" d="M 37.199219 64.371094 C 37.535156 64.726562 38.023438 65.792969 39.417969 67.214844 C 40.816406 68.636719 43.125 70.417969 45.167969 71.492188 C 47.210938 72.570312 48.992188 72.941406 50.351562 72.835938 C 51.710938 72.726562 52.652344 72.136719 53.171875 70.886719 C 53.691406 69.636719 53.789062 67.722656 53.828125 65.933594 C 53.871094 64.144531 53.847656 62.484375 53.660156 61.285156 C 53.46875 60.085938 53.109375 59.347656 53.03125 58.929688 C 52.949219 58.507812 53.148438 58.402344 53.628906 59.074219 C 54.109375 59.75 54.867188 61.199219 55.246094 63.324219 C 55.628906 65.449219 55.628906 68.246094 55.277344 70.277344 C 54.929688 72.308594 54.230469 73.570312 53.121094 74.230469 C 52.011719 74.894531 50.492188 74.957031 48.90625 74.664062 C 47.316406 74.367188 45.65625 73.714844 44.109375 72.738281 C 42.558594 71.761719 41.121094 70.460938 39.871094 69.074219 C 38.621094 67.683594 37.566406 66.210938 37.125 65.292969 C 36.6875 64.375 36.867188 64.019531 37.199219 64.371094 Z M 37.199219 64.371094 "/>
<path style=" stroke:none;fill-rule:evenodd;fill:rgb(27.45098%,23.921569%,56.470588%);fill-opacity:1;" d="M 52 87.582031 C 42.59375 86.019531 33.792969 83.1875 27.105469 79.703125 C 20.414062 76.21875 15.835938 72.085938 11.257812 67.949219 L 20.335938 97.359375 L 79.074219 97.359375 L 81.425781 89.738281 C 71.417969 89.441406 61.40625 89.144531 52 87.582031 Z M 52 87.582031 "/>
<path style=" stroke:none;fill-rule:evenodd;fill:rgb(42.352941%,41.960784%,68.627451%);fill-opacity:1;" d="M 57.867188 13.953125 C 61.480469 18.132812 66.429688 22.703125 72.910156 26.632812 C 79.390625 30.566406 87.40625 33.859375 95.417969 37.15625 L 73.464844 20.363281 L 49.703125 2.183594 C 51.980469 5.976562 54.253906 9.769531 57.867188 13.953125 Z M 57.867188 13.953125 "/>
</g>
</svg>
