<?xml version="1.0" encoding="UTF-8"?>
<svg xmlns="http://www.w3.org/2000/svg" xmlns:xlink="http://www.w3.org/1999/xlink" width="100px" height="100px" viewBox="0 0 100 100" version="1.1">
<g id="surface1">
<rect x="0" y="0" width="100" height="100" style="fill:rgb(46.666667%,12.941176%,0%);fill-opacity:1;stroke:none;"/>
<path style=" stroke:none;fill-rule:evenodd;fill:rgb(83.137255%,21.568627%,0%);fill-opacity:1;" d="M 2.390625 2.6875 L 96.429688 2.6875 L 96.429688 96.730469 L 2.390625 96.730469 Z M 2.390625 2.6875 "/>
<path style=" stroke:none;fill-rule:evenodd;fill:rgb(94.901961%,44.705882%,27.058824%);fill-opacity:1;" d="M 4.144531 2.6875 C 11.792969 5.363281 19.4375 8.039062 30.308594 9.476562 C 41.179688 10.914062 55.273438 11.113281 65.941406 9.777344 C 76.613281 8.4375 83.859375 5.5625 91.105469 2.6875 Z M 4.144531 2.6875 "/>
<path style=" stroke:none;fill-rule:evenodd;fill:rgb(71.372549%,17.647059%,0%);fill-opacity:1;" d="M 21.96875 67.617188 C 12.953125 61.242188 7.671875 54.347656 2.390625 47.449219 L 2.390625 96.730469 L 96.429688 96.730469 L 96.429688 87.929688 C 92.90625 88.28125 89.382812 88.628906 82.722656 88.253906 C 76.0625 87.878906 66.265625 86.78125 54.996094 83.304688 C 43.726562 79.832031 30.984375 73.984375 21.96875 67.613281 Z M 21.96875 67.617188 "/>
<path style=" stroke:none;fill-rule:evenodd;fill:rgb(100%,100%,100%);fill-opacity:1;" d="M 47.351562 41.566406 C 49.097656 45.003906 53.164062 46.441406 56.429688 44.78125 C 59.699219 43.117188 60.929688 38.984375 59.183594 35.546875 C 57.4375 32.109375 53.371094 30.671875 50.101562 32.332031 C 46.835938 33.992188 45.601562 38.128906 47.351562 41.566406 Z M 47.351562 41.566406 "/>
<path style=" stroke:none;fill-rule:evenodd;fill:rgb(47.058824%,12.156863%,0%);fill-opacity:1;" d="M 46.101562 42.199219 C 48.21875 46.363281 53.140625 48.105469 57.097656 46.09375 C 61.058594 44.082031 62.550781 39.074219 60.433594 34.914062 C 58.316406 30.75 53.390625 29.007812 49.433594 31.019531 C 45.476562 33.03125 43.984375 38.035156 46.101562 42.199219 Z M 46.101562 42.199219 "/>
<path style=" stroke:none;fill-rule:evenodd;fill:rgb(100%,100%,100%);fill-opacity:1;" d="M 31.492188 42.449219 C 33.433594 46.273438 37.960938 47.875 41.59375 46.027344 C 45.230469 44.179688 46.601562 39.578125 44.65625 35.753906 C 42.710938 31.929688 38.1875 30.328125 34.554688 32.179688 C 30.917969 34.027344 29.546875 38.625 31.492188 42.449219 Z M 31.492188 42.449219 "/>
<path style=" stroke:none;fill-rule:evenodd;fill:rgb(47.058824%,12.156863%,0%);fill-opacity:1;" d="M 30.269531 43.550781 C 32.535156 48.003906 37.804688 49.871094 42.039062 47.714844 C 46.277344 45.5625 47.871094 40.207031 45.609375 35.75 C 43.34375 31.296875 38.074219 29.429688 33.839844 31.585938 C 29.601562 33.738281 28.007812 39.09375 30.269531 43.550781 Z M 30.269531 43.550781 "/>
<path style=" stroke:none;fill-rule:evenodd;fill:rgb(32.54902%,13.333333%,0.392157%);fill-opacity:1;" d="M 60.449219 30.734375 C 59.855469 30.347656 57.796875 27.773438 55.96875 26.4375 C 54.144531 25.101562 52.546875 24.996094 51.214844 24.9375 C 49.886719 24.882812 48.828125 24.871094 48.324219 24.496094 C 47.824219 24.117188 47.882812 23.375 48.757812 23.054688 C 49.632812 22.734375 51.324219 22.839844 52.679688 23.125 C 54.039062 23.410156 55.0625 23.878906 56.105469 24.644531 C 57.152344 25.414062 58.21875 26.472656 59.191406 27.902344 C 60.164062 29.332031 61.039062 31.125 60.445312 30.738281 Z M 60.449219 30.734375 "/>
<path style=" stroke:none;fill-rule:evenodd;fill:rgb(32.54902%,13.333333%,0.392157%);fill-opacity:1;" d="M 26.921875 32.539062 C 27.144531 32.261719 27.613281 30.371094 28.28125 28.9375 C 28.949219 27.503906 29.816406 26.519531 30.675781 25.882812 C 31.535156 25.242188 32.386719 24.945312 33.121094 24.78125 C 33.851562 24.617188 34.460938 24.589844 34.882812 24.574219 C 35.300781 24.5625 35.527344 24.5625 35.726562 24.457031 C 35.925781 24.347656 36.097656 24.136719 36.113281 23.875 C 36.125 23.613281 35.984375 23.296875 35.289062 23.132812 C 34.589844 22.972656 33.339844 22.957031 32.070312 23.375 C 30.800781 23.792969 29.507812 24.644531 28.613281 25.847656 C 27.722656 27.046875 27.234375 28.597656 26.976562 30.039062 C 26.722656 31.480469 26.699219 32.816406 26.925781 32.539062 Z M 26.921875 32.539062 "/>
<path style=" stroke:none;fill-rule:evenodd;fill:rgb(100%,100%,100%);fill-opacity:1;" d="M 31.492188 42.449219 C 33.433594 46.273438 37.960938 47.875 41.59375 46.027344 C 45.230469 44.179688 46.601562 39.578125 44.65625 35.753906 C 42.710938 31.929688 38.1875 30.328125 34.554688 32.179688 C 30.917969 34.027344 29.546875 38.625 31.492188 42.449219 Z M 31.492188 42.449219 "/>
<path style=" stroke:none;fill-rule:evenodd;fill:rgb(100%,100%,100%);fill-opacity:1;" d="M 47.351562 41.566406 C 49.097656 45.003906 53.164062 46.441406 56.429688 44.78125 C 59.699219 43.117188 60.929688 38.984375 59.183594 35.546875 C 57.4375 32.109375 53.371094 30.671875 50.101562 32.332031 C 46.835938 33.992188 45.601562 38.128906 47.351562 41.566406 Z M 47.351562 41.566406 "/>
<path style=" stroke:none;fill-rule:evenodd;fill:rgb(28.627451%,14.117647%,2.745098%);fill-opacity:1;" d="M 54.652344 39.402344 C 54.652344 40.988281 53.367188 42.273438 51.777344 42.273438 C 50.191406 42.273438 48.90625 40.988281 48.90625 39.402344 C 48.90625 37.816406 50.191406 36.53125 51.777344 36.53125 C 53.367188 36.53125 54.652344 37.816406 54.652344 39.402344 Z M 54.652344 39.402344 "/>
<path style=" stroke:none;fill-rule:evenodd;fill:rgb(100%,100%,100%);fill-opacity:1;" d="M 51.621094 39.179688 C 51.621094 39.820312 51.101562 40.339844 50.457031 40.339844 C 49.816406 40.339844 49.296875 39.820312 49.296875 39.179688 C 49.296875 38.535156 49.816406 38.015625 50.457031 38.015625 C 51.101562 38.015625 51.621094 38.535156 51.621094 39.179688 Z M 51.621094 39.179688 "/>
<path style=" stroke:none;fill-rule:evenodd;fill:rgb(100%,100%,100%);fill-opacity:1;" d="M 51.621094 37.992188 C 51.621094 38.414062 51.277344 38.753906 50.859375 38.753906 C 50.4375 38.753906 50.09375 38.414062 50.09375 37.992188 C 50.09375 37.570312 50.4375 37.230469 50.859375 37.230469 C 51.277344 37.230469 51.621094 37.570312 51.621094 37.992188 Z M 51.621094 37.992188 "/>
<path style=" stroke:none;fill-rule:evenodd;fill:rgb(28.627451%,14.117647%,2.745098%);fill-opacity:1;" d="M 40.769531 40.738281 C 40.769531 42.324219 39.484375 43.613281 37.898438 43.613281 C 36.3125 43.613281 35.023438 42.324219 35.023438 40.738281 C 35.023438 39.152344 36.3125 37.867188 37.898438 37.867188 C 39.484375 37.867188 40.769531 39.152344 40.769531 40.738281 Z M 40.769531 40.738281 "/>
<path style=" stroke:none;fill-rule:evenodd;fill:rgb(100%,100%,100%);fill-opacity:1;" d="M 37.738281 40.511719 C 37.738281 41.15625 37.21875 41.675781 36.574219 41.675781 C 35.933594 41.675781 35.414062 41.15625 35.414062 40.511719 C 35.414062 39.871094 35.933594 39.351562 36.574219 39.351562 C 37.21875 39.351562 37.738281 39.871094 37.738281 40.511719 Z M 37.738281 40.511719 "/>
<path style=" stroke:none;fill-rule:evenodd;fill:rgb(100%,100%,100%);fill-opacity:1;" d="M 37.734375 39.328125 C 37.734375 39.75 37.394531 40.089844 36.972656 40.089844 C 36.550781 40.089844 36.210938 39.75 36.210938 39.328125 C 36.210938 38.90625 36.550781 38.566406 36.972656 38.566406 C 37.394531 38.566406 37.734375 38.90625 37.734375 39.328125 Z M 37.734375 39.328125 "/>
<path style=" stroke:none;fill-rule:evenodd;fill:rgb(32.54902%,13.333333%,0.392157%);fill-opacity:1;" d="M 28.269531 56.421875 C 29.328125 57.320312 31.226562 59.722656 34.109375 61.488281 C 36.992188 63.25 40.859375 64.375 44.511719 64.386719 C 48.164062 64.398438 51.597656 63.296875 54.257812 61.597656 C 56.914062 59.894531 58.796875 57.601562 59.855469 56.523438 C 60.914062 55.441406 61.148438 55.578125 60.957031 56.535156 C 60.757812 57.488281 60.132812 59.265625 58.167969 61.371094 C 56.203125 63.476562 52.898438 65.910156 49.488281 66.976562 C 46.078125 68.042969 42.554688 67.738281 39.449219 66.957031 C 36.339844 66.171875 33.644531 64.914062 31.601562 63.132812 C 29.558594 61.347656 28.167969 59.046875 27.582031 57.589844 C 26.996094 56.132812 27.214844 55.523438 28.269531 56.421875 Z M 28.269531 56.421875 "/>
</g>
</svg>
