<?xml version="1.0" encoding="UTF-8"?>
<svg xmlns="http://www.w3.org/2000/svg" xmlns:xlink="http://www.w3.org/1999/xlink" width="100px" height="100px" viewBox="0 0 100 100" version="1.1">
<g id="surface1">
<path style=" stroke:none;fill-rule:evenodd;fill:rgb(36.470588%,18.431373%,0%);fill-opacity:1;" d="M 0 0 L 100.179688 0 L 100.179688 99.914062 L 0 99.914062 Z M 0 0 "/>
<path style=" stroke:none;fill-rule:evenodd;fill:rgb(100%,39.607843%,0.392157%);fill-opacity:1;" d="M 2.539062 1.460938 L 96.558594 1.460938 L 96.558594 97.386719 L 2.539062 97.386719 Z M 2.539062 1.460938 "/>
<path style=" stroke:none;fill-rule:evenodd;fill:rgb(100%,100%,100%);fill-opacity:1;" d="M 52.042969 40.675781 C 54.132812 43.523438 58.992188 44.71875 62.894531 43.339844 C 66.800781 41.960938 68.273438 38.535156 66.183594 35.6875 C 64.097656 32.835938 59.238281 31.644531 55.332031 33.019531 C 51.429688 34.398438 49.957031 37.824219 52.042969 40.675781 Z M 52.042969 40.675781 "/>
<path style=" stroke:none;fill-rule:evenodd;fill:rgb(51.764706%,21.960784%,0%);fill-opacity:1;" d="M 50.550781 41.199219 C 53.082031 44.652344 58.964844 46.097656 63.695312 44.429688 C 68.421875 42.761719 70.207031 38.609375 67.675781 35.160156 C 65.148438 31.710938 59.265625 30.265625 54.535156 31.933594 C 49.804688 33.601562 48.023438 37.75 50.550781 41.199219 Z M 50.550781 41.199219 "/>
<path style=" stroke:none;fill-rule:evenodd;fill:rgb(100%,100%,100%);fill-opacity:1;" d="M 33.09375 41.40625 C 35.417969 44.578125 40.824219 45.90625 45.167969 44.375 C 49.515625 42.839844 51.152344 39.027344 48.828125 35.859375 C 46.503906 32.6875 41.097656 31.359375 36.753906 32.894531 C 32.410156 34.425781 30.773438 38.238281 33.09375 41.40625 Z M 33.09375 41.40625 "/>
<path style=" stroke:none;fill-rule:evenodd;fill:rgb(51.764706%,21.960784%,0%);fill-opacity:1;" d="M 31.636719 42.320312 C 34.34375 46.011719 40.640625 47.558594 45.703125 45.773438 C 50.761719 43.988281 52.671875 39.546875 49.964844 35.855469 C 47.257812 32.164062 40.960938 30.617188 35.902344 32.402344 C 30.839844 34.1875 28.929688 38.625 31.636719 42.320312 Z M 31.636719 42.320312 "/>
<path style=" stroke:none;fill-rule:evenodd;fill:rgb(100%,100%,100%);fill-opacity:1;" d="M 33.09375 41.40625 C 35.417969 44.578125 40.824219 45.90625 45.167969 44.375 C 49.515625 42.839844 51.152344 39.027344 48.828125 35.859375 C 46.503906 32.6875 41.097656 31.359375 36.753906 32.894531 C 32.410156 34.425781 30.773438 38.238281 33.09375 41.40625 Z M 33.09375 41.40625 "/>
<path style=" stroke:none;fill-rule:evenodd;fill:rgb(100%,100%,100%);fill-opacity:1;" d="M 52.042969 40.675781 C 54.132812 43.523438 58.992188 44.71875 62.894531 43.339844 C 66.800781 41.960938 68.273438 38.535156 66.183594 35.6875 C 64.097656 32.835938 59.238281 31.644531 55.332031 33.019531 C 51.429688 34.398438 49.957031 37.824219 52.042969 40.675781 Z M 52.042969 40.675781 "/>
<path style=" stroke:none;fill-rule:evenodd;fill:rgb(36.470588%,18.431373%,0%);fill-opacity:1;" d="M 60.769531 38.882812 C 60.769531 40.195312 59.234375 41.261719 57.339844 41.261719 C 55.445312 41.261719 53.90625 40.195312 53.90625 38.882812 C 53.90625 37.566406 55.445312 36.503906 57.339844 36.503906 C 59.234375 36.503906 60.769531 37.566406 60.769531 38.882812 Z M 60.769531 38.882812 "/>
<path style=" stroke:none;fill-rule:evenodd;fill:rgb(100%,100%,100%);fill-opacity:1;" d="M 57.148438 38.695312 C 57.148438 39.226562 56.527344 39.660156 55.757812 39.660156 C 54.992188 39.660156 54.371094 39.226562 54.371094 38.695312 C 54.371094 38.164062 54.992188 37.730469 55.757812 37.730469 C 56.527344 37.730469 57.148438 38.164062 57.148438 38.695312 Z M 57.148438 38.695312 "/>
<path style=" stroke:none;fill-rule:evenodd;fill:rgb(100%,100%,100%);fill-opacity:1;" d="M 57.148438 37.710938 C 57.148438 38.0625 56.738281 38.34375 56.234375 38.34375 C 55.730469 38.34375 55.324219 38.0625 55.324219 37.710938 C 55.324219 37.363281 55.730469 37.078125 56.234375 37.078125 C 56.738281 37.078125 57.148438 37.363281 57.148438 37.710938 Z M 57.148438 37.710938 "/>
<path style=" stroke:none;fill-rule:evenodd;fill:rgb(36.470588%,18.431373%,0%);fill-opacity:1;" d="M 44.183594 39.988281 C 44.183594 41.304688 42.644531 42.367188 40.75 42.367188 C 38.855469 42.367188 37.320312 41.304688 37.320312 39.988281 C 37.320312 38.675781 38.855469 37.609375 40.75 37.609375 C 42.644531 37.609375 44.183594 38.675781 44.183594 39.988281 Z M 44.183594 39.988281 "/>
<path style=" stroke:none;fill-rule:evenodd;fill:rgb(100%,100%,100%);fill-opacity:1;" d="M 40.5625 39.800781 C 40.5625 40.332031 39.9375 40.765625 39.171875 40.765625 C 38.40625 40.765625 37.78125 40.332031 37.78125 39.800781 C 37.78125 39.269531 38.40625 38.835938 39.171875 38.835938 C 39.9375 38.835938 40.5625 39.269531 40.5625 39.800781 Z M 40.5625 39.800781 "/>
<path style=" stroke:none;fill-rule:evenodd;fill:rgb(100%,100%,100%);fill-opacity:1;" d="M 40.5625 38.820312 C 40.5625 39.167969 40.152344 39.453125 39.648438 39.453125 C 39.144531 39.453125 38.738281 39.167969 38.738281 38.820312 C 38.738281 38.46875 39.144531 38.1875 39.648438 38.1875 C 40.152344 38.1875 40.5625 38.46875 40.5625 38.820312 Z M 40.5625 38.820312 "/>
<path style=" stroke:none;fill-rule:evenodd;fill:rgb(36.470588%,18.431373%,0%);fill-opacity:1;" d="M 36.28125 51.367188 C 35.710938 52.234375 34.433594 53.578125 34.523438 55.515625 C 34.613281 57.449219 36.074219 59.976562 37.894531 61.589844 C 39.71875 63.207031 41.90625 63.910156 44.230469 64.125 C 46.550781 64.339844 49.007812 64.074219 51.160156 62.992188 C 53.3125 61.914062 55.160156 60.023438 56.375 59.257812 C 57.585938 58.488281 58.164062 58.847656 57.347656 60.046875 C 56.53125 61.246094 54.320312 63.285156 52.074219 64.621094 C 49.824219 65.957031 47.542969 66.582031 44.84375 66.484375 C 42.144531 66.386719 39.03125 65.558594 36.578125 63.832031 C 34.121094 62.101562 32.320312 59.472656 31.933594 57.238281 C 31.550781 55.003906 32.578125 53.167969 33.589844 51.980469 C 34.601562 50.792969 35.597656 50.257812 36.160156 50.183594 C 36.722656 50.113281 36.851562 50.5 36.28125 51.367188 Z M 36.28125 51.367188 "/>
<path style=" stroke:none;fill-rule:evenodd;fill:rgb(78.039216%,32.54902%,0%);fill-opacity:1;" d="M 13.96875 77.296875 C 8.34375 73.980469 5.441406 70.964844 2.539062 67.949219 L 2.539062 97.390625 L 96.558594 97.390625 L 96.558594 92.199219 C 93.34375 92.523438 90.125 92.84375 84.34375 92.902344 C 78.558594 92.964844 70.210938 92.765625 61.773438 91.878906 C 53.335938 90.992188 44.816406 89.425781 36.378906 86.832031 C 27.941406 84.238281 19.59375 80.617188 13.96875 77.296875 Z M 13.96875 77.296875 "/>
<path style=" stroke:none;fill-rule:evenodd;fill:rgb(100%,54.509804%,21.960784%);fill-opacity:1;" d="M 31.074219 5.765625 C 42.667969 6.773438 58.613281 7.132812 70.253906 6.308594 C 81.890625 5.484375 89.226562 3.472656 96.558594 1.460938 L 4.980469 1.460938 C 12.230469 3.113281 19.476562 4.761719 31.074219 5.765625 Z M 31.074219 5.765625 "/>
<path style=" stroke:none;fill-rule:evenodd;fill:rgb(37.647059%,17.254902%,0%);fill-opacity:1;" d="M 33.695312 30.722656 C 36.140625 30.273438 40.402344 29.535156 43.550781 29.027344 C 46.703125 28.519531 48.746094 28.242188 50.011719 28.027344 C 51.277344 27.8125 51.765625 27.65625 51.742188 27.378906 C 51.722656 27.101562 51.1875 26.703125 49.902344 26.515625 C 48.613281 26.332031 46.574219 26.363281 44.304688 26.632812 C 42.039062 26.898438 39.542969 27.40625 37.121094 28.257812 C 34.699219 29.105469 32.347656 30.296875 31.488281 30.8125 C 30.628906 31.332031 31.253906 31.171875 33.695312 30.722656 Z M 33.695312 30.722656 "/>
<path style=" stroke:none;fill-rule:evenodd;fill:rgb(37.254902%,16.862745%,0%);fill-opacity:1;" d="M 66.789062 28.296875 C 66.257812 27.566406 65.375 25.898438 64.570312 24.707031 C 63.761719 23.511719 63.035156 22.792969 62.429688 22.417969 C 61.824219 22.042969 61.335938 22.011719 60.839844 22.066406 C 60.34375 22.117188 59.835938 22.257812 59.359375 22.480469 C 58.886719 22.699219 58.445312 23.007812 58.167969 23.015625 C 57.890625 23.023438 57.78125 22.730469 58.011719 22.25 C 58.246094 21.765625 58.820312 21.09375 59.789062 20.777344 C 60.761719 20.464844 62.128906 20.511719 63.199219 20.929688 C 64.269531 21.351562 65.042969 22.148438 65.691406 23.066406 C 66.34375 23.984375 66.875 25.027344 67.183594 25.96875 C 67.492188 26.910156 67.578125 27.753906 67.535156 28.28125 C 67.488281 28.808594 67.3125 29.023438 66.785156 28.296875 Z M 66.789062 28.296875 "/>
</g>
</svg>
