<?xml version="1.0" encoding="UTF-8"?>
<svg xmlns="http://www.w3.org/2000/svg" xmlns:xlink="http://www.w3.org/1999/xlink" width="100px" height="100px" viewBox="0 0 100 100" version="1.1">
<g id="surface1">
<path style=" stroke:none;fill-rule:evenodd;fill:rgb(61.176471%,36.470588%,0%);fill-opacity:1;" d="M 0 100.285156 C 33.269531 100.285156 66.539062 100.285156 99.808594 100.285156 C 82.269531 66.855469 64.730469 33.425781 47.191406 0 C 31.460938 33.425781 15.730469 66.855469 0 100.285156 Z M 0 100.285156 "/>
<path style=" stroke:none;fill-rule:evenodd;fill:rgb(100%,75.294118%,0%);fill-opacity:1;" d="M 4.699219 97.253906 C 34.539062 97.253906 64.375 97.253906 94.214844 97.253906 C 78.484375 65.847656 62.753906 34.4375 47.023438 3.03125 C 32.914062 34.4375 18.808594 65.84375 4.699219 97.253906 Z M 4.699219 97.253906 "/>
<path style=" stroke:none;fill-rule:evenodd;fill:rgb(100%,100%,100%);fill-opacity:1;" d="M 43.761719 50.671875 C 42.8125 54.597656 39.90625 56.746094 37.265625 55.464844 C 34.628906 54.1875 33.261719 49.972656 34.210938 46.042969 C 35.160156 42.117188 38.066406 39.972656 40.707031 41.25 C 43.34375 42.527344 44.710938 46.746094 43.761719 50.671875 Z M 43.761719 50.671875 "/>
<path style=" stroke:none;fill-rule:evenodd;fill:rgb(63.137255%,36.078431%,0%);fill-opacity:1;" d="M 44.769531 51.160156 C 43.621094 55.914062 40.097656 58.515625 36.90625 56.96875 C 33.710938 55.421875 32.054688 50.3125 33.203125 45.558594 C 34.351562 40.800781 37.875 38.203125 41.066406 39.75 C 44.261719 41.296875 45.917969 46.402344 44.769531 51.160156 Z M 44.769531 51.160156 "/>
<path style=" stroke:none;fill-rule:evenodd;fill:rgb(100%,100%,100%);fill-opacity:1;" d="M 55.796875 49.222656 C 54.738281 53.589844 51.503906 55.980469 48.570312 54.558594 C 45.636719 53.136719 44.113281 48.441406 45.167969 44.074219 C 46.226562 39.707031 49.460938 37.316406 52.394531 38.738281 C 55.328125 40.160156 56.851562 44.851562 55.796875 49.222656 Z M 55.796875 49.222656 "/>
<path style=" stroke:none;fill-rule:evenodd;fill:rgb(63.137255%,36.078431%,0%);fill-opacity:1;" d="M 56.832031 50.207031 C 55.601562 55.296875 51.832031 58.078125 48.414062 56.425781 C 44.996094 54.769531 43.222656 49.300781 44.453125 44.214844 C 45.683594 39.125 49.453125 36.34375 52.871094 38 C 56.289062 39.652344 58.0625 45.121094 56.832031 50.207031 Z M 56.832031 50.207031 "/>
<path style=" stroke:none;fill-rule:evenodd;fill:rgb(100%,100%,100%);fill-opacity:1;" d="M 55.796875 49.222656 C 54.738281 53.589844 51.503906 55.980469 48.570312 54.558594 C 45.636719 53.136719 44.113281 48.441406 45.167969 44.074219 C 46.226562 39.707031 49.460938 37.316406 52.394531 38.738281 C 55.328125 40.160156 56.851562 44.851562 55.796875 49.222656 Z M 55.796875 49.222656 "/>
<path style=" stroke:none;fill-rule:evenodd;fill:rgb(100%,100%,100%);fill-opacity:1;" d="M 43.761719 50.671875 C 42.8125 54.597656 39.90625 56.746094 37.265625 55.464844 C 34.628906 54.1875 33.261719 49.972656 34.210938 46.042969 C 35.160156 42.117188 38.066406 39.972656 40.707031 41.25 C 43.34375 42.527344 44.710938 46.746094 43.761719 50.671875 Z M 43.761719 50.671875 "/>
<path style=" stroke:none;fill-rule:evenodd;fill:rgb(34.117647%,20.392157%,0%);fill-opacity:1;" d="M 42.359375 48.601562 C 42.527344 50.292969 41.695312 51.855469 40.503906 52.097656 C 39.308594 52.335938 38.203125 51.160156 38.035156 49.46875 C 37.863281 47.78125 38.695312 46.214844 39.890625 45.976562 C 41.085938 45.738281 42.1875 46.914062 42.359375 48.601562 Z M 42.359375 48.601562 "/>
<path style=" stroke:none;fill-rule:evenodd;fill:rgb(100%,100%,100%);fill-opacity:1;" d="M 42.042969 48.421875 C 42.109375 49.105469 41.773438 49.734375 41.289062 49.832031 C 40.808594 49.929688 40.359375 49.453125 40.292969 48.769531 C 40.222656 48.085938 40.558594 47.453125 41.042969 47.359375 C 41.527344 47.261719 41.972656 47.738281 42.042969 48.421875 Z M 42.042969 48.421875 "/>
<path style=" stroke:none;fill-rule:evenodd;fill:rgb(100%,100%,100%);fill-opacity:1;" d="M 41.316406 47.277344 C 41.359375 47.726562 41.140625 48.144531 40.820312 48.207031 C 40.503906 48.269531 40.210938 47.957031 40.167969 47.507812 C 40.121094 47.058594 40.34375 46.644531 40.660156 46.582031 C 40.976562 46.515625 41.269531 46.828125 41.316406 47.277344 Z M 41.316406 47.277344 "/>
<path style=" stroke:none;fill-rule:evenodd;fill:rgb(34.117647%,20.392157%,0%);fill-opacity:1;" d="M 52.953125 47.929688 C 53.121094 49.621094 52.289062 51.183594 51.097656 51.425781 C 49.902344 51.664062 48.796875 50.488281 48.628906 48.796875 C 48.457031 47.109375 49.289062 45.542969 50.484375 45.304688 C 51.679688 45.066406 52.78125 46.242188 52.953125 47.929688 Z M 52.953125 47.929688 "/>
<path style=" stroke:none;fill-rule:evenodd;fill:rgb(100%,100%,100%);fill-opacity:1;" d="M 52.636719 47.75 C 52.703125 48.433594 52.367188 49.0625 51.882812 49.160156 C 51.402344 49.257812 50.953125 48.78125 50.886719 48.097656 C 50.816406 47.414062 51.152344 46.78125 51.636719 46.6875 C 52.121094 46.589844 52.566406 47.066406 52.636719 47.75 Z M 52.636719 47.75 "/>
<path style=" stroke:none;fill-rule:evenodd;fill:rgb(100%,100%,100%);fill-opacity:1;" d="M 51.910156 46.605469 C 51.953125 47.054688 51.734375 47.472656 51.414062 47.535156 C 51.097656 47.597656 50.804688 47.285156 50.761719 46.835938 C 50.714844 46.386719 50.9375 45.972656 51.253906 45.910156 C 51.570312 45.84375 51.863281 46.15625 51.910156 46.605469 Z M 51.910156 46.605469 "/>
<path style=" stroke:none;fill-rule:evenodd;fill:rgb(33.72549%,21.568627%,0%);fill-opacity:1;" d="M 36.21875 37.910156 C 37.03125 37.988281 38.542969 37.800781 39.742188 37.132812 C 40.941406 36.464844 41.832031 35.316406 42.199219 34.59375 C 42.566406 33.871094 42.417969 33.578125 42.179688 33.429688 C 41.945312 33.28125 41.625 33.28125 41.105469 33.765625 C 40.585938 34.246094 39.867188 35.210938 39.074219 35.863281 C 38.28125 36.519531 37.410156 36.867188 36.75 37.027344 C 36.089844 37.1875 35.632812 37.160156 35.464844 37.320312 C 35.292969 37.480469 35.40625 37.828125 36.21875 37.910156 Z M 36.21875 37.910156 "/>
<path style=" stroke:none;fill-rule:evenodd;fill:rgb(33.72549%,21.568627%,0%);fill-opacity:1;" d="M 54.546875 33.097656 C 54.246094 32.828125 53.695312 31.972656 52.988281 31.332031 C 52.277344 30.6875 51.410156 30.261719 50.617188 30.140625 C 49.824219 30.019531 49.105469 30.207031 48.558594 30.476562 C 48.007812 30.742188 47.628906 31.089844 47.300781 31.105469 C 46.96875 31.117188 46.6875 30.796875 46.714844 30.355469 C 46.742188 29.914062 47.082031 29.351562 47.714844 28.925781 C 48.347656 28.496094 49.273438 28.203125 50.164062 28.203125 C 51.050781 28.203125 51.902344 28.496094 52.636719 29.042969 C 53.375 29.59375 53.996094 30.394531 54.367188 31.050781 C 54.734375 31.703125 54.847656 32.210938 54.875 32.628906 C 54.90625 33.042969 54.847656 33.363281 54.546875 33.097656 Z M 54.546875 33.097656 "/>
<path style=" stroke:none;fill-rule:evenodd;fill:rgb(33.72549%,21.568627%,0%);fill-opacity:1;" d="M 43.964844 69.839844 C 44.167969 70.429688 44.335938 72.292969 44.828125 73.710938 C 45.320312 75.128906 46.140625 76.105469 47.078125 76.722656 C 48.011719 77.339844 49.066406 77.59375 50.019531 77.082031 C 50.972656 76.570312 51.828125 75.292969 52.253906 73.90625 C 52.679688 72.523438 52.679688 71.035156 52.574219 69.894531 C 52.46875 68.757812 52.253906 67.964844 52.03125 67.386719 C 51.808594 66.804688 51.582031 66.429688 51.660156 66.28125 C 51.742188 66.128906 52.136719 66.199219 52.589844 67.023438 C 53.042969 67.851562 53.550781 69.429688 53.632812 71.304688 C 53.714844 73.175781 53.371094 75.335938 52.738281 76.707031 C 52.105469 78.082031 51.183594 78.660156 50.148438 78.882812 C 49.113281 79.105469 47.964844 78.964844 46.945312 78.5 C 45.925781 78.035156 45.039062 77.242188 44.449219 75.871094 C 43.859375 74.5 43.5625 72.546875 43.539062 71.234375 C 43.511719 69.917969 43.757812 69.246094 43.964844 69.835938 Z M 43.964844 69.839844 "/>
<path style=" stroke:none;fill-rule:evenodd;fill:rgb(99.607843%,85.490196%,37.254902%);fill-opacity:1;" d="M 60.714844 40.167969 C 65.359375 51.4375 71.019531 62.839844 76.5 71.828125 C 81.976562 80.820312 87.273438 87.394531 92.570312 93.972656 C 77.988281 64.859375 63.410156 35.746094 48.828125 6.628906 C 52.449219 17.765625 56.074219 28.898438 60.714844 40.167969 Z M 60.714844 40.167969 "/>
<path style=" stroke:none;fill-rule:evenodd;fill:rgb(89.019608%,61.568627%,0.392157%);fill-opacity:1;" d="M 40.867188 86.410156 C 35.375 82.308594 31.117188 77.46875 27.984375 73.167969 C 24.851562 68.867188 22.84375 65.105469 20.832031 61.34375 C 15.453125 73.316406 10.078125 85.285156 4.699219 97.253906 C 23.070312 97.253906 41.441406 97.253906 59.808594 97.253906 C 53.082031 93.886719 46.355469 90.515625 40.867188 86.410156 Z M 40.867188 86.410156 "/>
</g>
</svg>
